<?xml version="1.0" encoding="utf-8"?>
<!-- Generator: Adobe Illustrator 22.0.0, SVG Export Plug-In . SVG Version: 6.00 Build 0)  -->
<svg version="1.1" id="Layer_1" xmlns="http://www.w3.org/2000/svg" xmlns:xlink="http://www.w3.org/1999/xlink" x="0px" y="0px"
	 viewBox="0 0 796.1 270" style="enable-background:new 0 0 796.1 270;" xml:space="preserve">
<style type="text/css">
	.st0{fill:#F1B090;}
	.st1{fill:#4B1A2D;}
</style>
<path class="st0" d="M243,270H27c-14.9,0-27-12.1-27-27L0,27C0,12.1,12.1,0,27,0l216,0c14.9,0,27,12.1,27,27v216
	C270,257.9,257.9,270,243,270z"/>
<g>
	<path class="st1" d="M348.8,179v11.2h-19.3V179c-28.4-2-46.1-16.7-46.1-41c0-24.2,17.7-39.1,46.1-41.1V85.8h19.3V97
		c28.4,2,46.1,16.9,46.1,41.1C394.8,162.3,377.3,177,348.8,179z M329.5,163v-49.8c-17.9,1.6-26.2,10.4-26.2,24.9
		C303.3,152.5,311.4,161.4,329.5,163z M348.8,163c18.1-1.6,26.2-10.6,26.2-24.9c0-14.3-8.2-23.3-26.2-24.9V163z"/>
	<path class="st1" d="M449.9,185.7c-27.6,0-46.5-20.4-46.5-47.7c0-27.3,18.9-47.7,46.5-47.7s46.5,20.4,46.5,47.7
		C496.3,165.4,477.5,185.7,449.9,185.7z M449.9,168.7c15.7,0,25.8-13,25.8-30.7c0-17.7-10.2-30.7-25.8-30.7c-15.8,0-26,13-26,30.7
		C423.9,155.7,434.1,168.7,449.9,168.7z"/>
	<path class="st1" d="M508.5,91.2h38.2c20.4,0,33.9,12.2,33.9,31.2c0,18.9-13.5,31.1-33.9,31.1h-18.1v31.5h-20.1V91.2z M528.6,107.9
		v28.8h16.2c9.4,0,15.4-5.5,15.4-14.3c0-9-6-14.5-15.4-14.5H528.6z"/>
	<path class="st1" d="M591.8,91.2h26.4l26,68.8l25.2-68.8h25.8v93.7H676v-62.8l-24.4,62.8h-16.3L611,122.1v62.8h-19.1V91.2z"/>
	<path class="st1" d="M703.8,184.9L738,91.2h24.1l34,93.7h-21.6l-7.2-20.5h-35.6l-7.2,20.5H703.8z M737.1,148.2h24.8l-12.5-35.6
		L737.1,148.2z"/>
</g>
<g>
	<path class="st1" d="M157.1,138.1c0,27.4-18.2,47.7-44.9,47.7c-24.5,0-41.9-17.1-44.6-41.4H52.1v40.6H36.7V91.2h15.4v39.6h15.7
		c2.9-23.7,20.2-40.4,44.5-40.4C138.9,90.4,157.1,110.6,157.1,138.1z M141.4,138.1c0-19.8-11.5-34.1-29.2-34.1
		c-17.5,0-29.1,14.3-29.1,34.1c0,19.8,11.5,34.1,29.1,34.1C129.9,172.2,141.4,157.9,141.4,138.1z"/>
	<path class="st1" d="M170.6,91.2h37c19.5,0,32.4,11.6,32.4,29.9c0,18.1-12.9,29.9-32.4,29.9H186v34h-15.4V91.2z M186,104.6v32.9
		h20.2c11,0,18.1-6.4,18.1-16.5c0-10.2-7-16.5-17.9-16.5H186z"/>
</g>
</svg>
