<?xml version="1.0" encoding="utf-8"?>
<!-- Generator: Adobe Illustrator 22.0.0, SVG Export Plug-In . SVG Version: 6.00 Build 0)  -->
<svg version="1.1" id="Layer_1" xmlns="http://www.w3.org/2000/svg" xmlns:xlink="http://www.w3.org/1999/xlink" x="0px" y="0px"
	 viewBox="0 0 791.6 261" style="enable-background:new 0 0 791.6 261;" xml:space="preserve">
<style type="text/css">
	.st0{fill:#FFFFFF;}
</style>
<path d="M223.5,261h-186C16.8,261,0,244.2,0,223.5v-186C0,16.8,16.8,0,37.5,0h186C244.2,0,261,16.8,261,37.5v186
	C261,244.2,244.2,261,223.5,261z"/>
<g>
	<path d="M344.3,174.5v11.2H325v-11.2c-28.4-2-46.1-16.7-46.1-41c0-24.2,17.7-39.1,46.1-41.1V81.3h19.3v11.1
		c28.4,2,46.1,16.9,46.1,41.1C390.4,157.8,372.8,172.5,344.3,174.5z M325,158.5v-49.8c-17.9,1.6-26.2,10.4-26.2,24.9
		S306.9,156.9,325,158.5z M344.3,158.5c18.1-1.6,26.2-10.6,26.2-24.9c0-14.3-8.2-23.3-26.2-24.9V158.5z"/>
	<path d="M445.4,181.2c-27.6,0-46.5-20.4-46.5-47.7s18.9-47.7,46.5-47.7s46.5,20.4,46.5,47.7S473,181.2,445.4,181.2z M445.4,164.2
		c15.7,0,25.8-13,25.8-30.7s-10.2-30.7-25.8-30.7c-15.8,0-26,13-26,30.7S429.6,164.2,445.4,164.2z"/>
	<path d="M504,86.7h38.2c20.4,0,33.9,12.2,33.9,31.2c0,18.9-13.5,31.1-33.9,31.1h-18.1v31.5H504V86.7z M524.1,103.4v28.8h16.2
		c9.4,0,15.4-5.5,15.4-14.3c0-9-6-14.5-15.4-14.5H524.1z"/>
	<path d="M587.3,86.7h26.4l26,68.8l25.2-68.8h25.8v93.7h-19.1v-62.8l-24.4,62.8h-16.3l-24.4-62.8v62.8h-19.1V86.7z"/>
	<path d="M699.3,180.4l34.3-93.7h24.1l34,93.7h-21.6l-7.2-20.5h-35.6l-7.2,20.5H699.3z M732.6,143.7h24.8l-12.5-35.6L732.6,143.7z"
		/>
</g>
<g>
	<path class="st0" d="M149.3,133.6c0,27.6-18.1,47.7-44.2,47.7c-24.5,0-42-17.8-44.1-42.8H44.4v42H32.8V86.7h11.6v41h16.7
		c2.4-24.5,19.7-41.8,43.9-41.8C131.2,85.9,149.3,106,149.3,133.6z M137.3,133.6c0-21.6-13-37-32.3-37s-32.3,15.4-32.3,37
		c0,21.6,13,37,32.3,37S137.3,155.1,137.3,133.6z"/>
	<path class="st0" d="M164,86.7h36c18.7,0,31.1,11.2,31.1,28.8s-12.3,28.9-31.1,28.9h-24.4v36H164V86.7z M175.6,97.4v36.3h23.3
		c12.3,0,20.2-7.1,20.2-18.2s-7.8-18.1-20.1-18.1H175.6z"/>
</g>
</svg>
