<?xml version="1.0" encoding="utf-8"?>
<!-- Generator: Adobe Illustrator 22.0.0, SVG Export Plug-In . SVG Version: 6.00 Build 0)  -->
<svg version="1.1" id="Layer_1" xmlns="http://www.w3.org/2000/svg" xmlns:xlink="http://www.w3.org/1999/xlink" x="0px" y="0px"
	 viewBox="0 0 1200 737.9" style="enable-background:new 0 0 1200 737.9;" xml:space="preserve">
<style type="text/css">
	.st0{fill:#FFFFFF;fill-opacity:0;}
	.st1{fill:#F5E7FE;}
</style>
<rect id="XMLID_7_" class="st0" width="1200" height="737.9"/>
<g>
	<path class="st1" d="M562.5,213.8h237.6v481h-94.9V510.1h-76.1L488.6,694.8H370.5l144.2-189.1c-81.1-15.2-118.8-76.8-118.8-144.2
		C395.9,282.6,448,213.8,562.5,213.8z M705.2,298.5H569c-49.3,0-78.2,24.6-78.2,63c0,38.4,29,63.7,78.2,63.7h136.2V298.5z"/>
	<path class="st1" d="M1079.2,694.8v-99.3h-51.4l-85.5,99.3H824.2l94.2-109.4c-51.4-19.6-74.6-63-74.6-112.3
		c0-65.9,42.7-122.4,137.6-122.4h189.1v344.1H1079.2z M1079.2,430.4h-94.9c-31.2,0-49.3,14.5-49.3,42.7c0,26.8,18.1,42.7,49.3,42.7
		h94.9V430.4z"/>
</g>
</svg>
