<?xml version="1.0" encoding="utf-8"?>
<!-- Generator: Adobe Illustrator 22.0.0, SVG Export Plug-In . SVG Version: 6.00 Build 0)  -->
<svg version="1.1" id="logotype__v" xmlns="http://www.w3.org/2000/svg" xmlns:xlink="http://www.w3.org/1999/xlink" x="0px"
	 y="0px" viewBox="0 0 1200 1200" style="enable-background:new 0 0 1200 1200;" xml:space="preserve">
<style type="text/css">
	.st0{fill:#F5F1FE;}
	.st1{fill:none;stroke:#C06CF5;stroke-width:2;stroke-miterlimit:10;}
	.st2{fill:#DDA5FD;}
</style>
<rect id="XMLID_76_" x="0" y="0" class="st0" width="1200" height="1200"/>
<line id="XMLID_115_" class="st1" x1="0" y1="686.2" x2="1200" y2="686.2"/>
<line id="XMLID_35_" class="st1" x1="0" y1="508" x2="1200" y2="508"/>
<line id="XMLID_37_" class="st1" x1="0" y1="572.8" x2="1200" y2="572.8"/>
<line id="XMLID_38_" class="st1" x1="142" y1="0" x2="142" y2="1200"/>
<line id="XMLID_40_" class="st1" x1="307.1" y1="0" x2="307.1" y2="1200"/>
<line id="XMLID_41_" class="st1" x1="346" y1="0.5" x2="346" y2="1200.5"/>
<line id="XMLID_39_" class="st1" x1="1058" y1="0" x2="1058" y2="1200"/>
<g id="XMLID_6_">
	<g>
		<path class="st2" d="M391.2,572.8h56v113.3h-22.4v-43.5H407l-33.1,43.5H346l34-44.5c-19.1-3.6-28-18.1-28-34
			C352,589,364.3,572.8,391.2,572.8z M424.9,592.8h-32.1c-11.6,0-18.4,5.8-18.4,14.8c0,9,6.8,15,18.4,15h32.1V592.8z"/>
		<path class="st2" d="M538.9,572.8h22.5l-44.2,86.7c-10.4,20-15,26.6-32.3,26.6h-14.5v-20h12.6c6.8,0,10.1-2.2,12.8-8.2l1.4-3.1
			l-42.3-82.1h22.9l30.6,59.1L538.9,572.8z"/>
		<path class="st2" d="M653.1,652.9c0,18.4-16.6,35.5-47.1,35.5c-29.5,0-43.9-14.5-49.8-33.6h22.7c4.9,9.6,14.7,13.7,27.1,13.7
			c14.3,0,24.7-5.8,24.7-15.4c0-9-6.8-13.5-17.8-13.5h-25.1v-20h25.1c10.9,0,17.8-4.6,17.8-13.3s-8.5-15.7-23.6-15.7
			c-12.5,0-23.9,4.9-27.5,13.7h-22.5c4.9-17.2,21.2-33.6,49.7-33.6c27.8,0,46.3,14.7,46.3,35.5c0,10.2-4.4,18.4-13.1,23.4
			C648.6,634.4,653.1,642.6,653.1,652.9z"/>
		<path class="st2" d="M744,686.1v-46.8h-55v46.8h-22.4V572.8H689v46.6h55v-46.6h22.4v113.3H744z"/>
		<path class="st2" d="M893.1,686.1h-23.7l-11.1-25.1h-51.7l-11.1,25.1h-22.9L822,572.8h21.8L893.1,686.1z M815.5,641.1h34
			l-16.9-38.6L815.5,641.1z"/>
		<path class="st2" d="M942.5,639.4h-20.7v46.8h-22.4V572.8h22.4v46.6h20.7c4.1-28.2,26.6-48.8,57.3-48.8
			c34.8,0,58.2,25.6,58.2,58.9c0,32.8-23.4,58.9-58.2,58.9C969.1,688.4,946.6,667.5,942.5,639.4z M1035.7,629.5
			c0-22-14.7-38.9-35.8-38.9c-21,0-35.7,16.9-35.7,38.9c0,21.8,14.7,38.9,35.7,38.9C1021,668.4,1035.7,651.3,1035.7,629.5z"/>
	</g>
	<g>
		<polygon class="st2" points="215.5,572.8 179.9,572.8 241.8,629.5 176.9,686.2 212.5,686.2 275.2,629.5 		"/>
		<g>
			<path class="st2" d="M248,508h-47c-32.6,0-59,26.4-59,59v17.4c0,32.6,26.4,59,59,59h49V616h-77.3c-1.8,0-3.2-1.4-3.2-3.2v-74.2
				c0-1.8,1.4-3.2,3.2-3.2h103.7c1.8,0,3.2,1.4,3.2,3.2v147.5H307V567C307,534.4,280.6,508,248,508z"/>
		</g>
	</g>
</g>
</svg>
