<?xml version="1.0" encoding="utf-8"?>
<!-- Generator: Adobe Illustrator 22.0.0, SVG Export Plug-In . SVG Version: 6.00 Build 0)  -->
<svg version="1.1" id="Layer_1" xmlns="http://www.w3.org/2000/svg" xmlns:xlink="http://www.w3.org/1999/xlink" x="0px" y="0px"
	 viewBox="0 0 1200 1200" style="enable-background:new 0 0 1200 1200;" xml:space="preserve">
<style type="text/css">
	.st0{fill:#F5F1FE;}
	.st1{fill:none;stroke:#C06CF5;stroke-width:2;stroke-miterlimit:10;}
	.st2{opacity:0;}
	.st3{fill:#C06CF5;}
	.st4{fill:#DDA5FD;}
</style>
<rect id="XMLID_14_" class="st0" width="1200" height="1200"/>
<line id="XMLID_30_" class="st1" x1="347.3" y1="0" x2="347.3" y2="1200"/>
<line id="XMLID_31_" class="st1" x1="338.6" y1="0" x2="338.6" y2="1200"/>
<line id="XMLID_32_" class="st1" x1="868.7" y1="0" x2="868.7" y2="1200"/>
<line id="XMLID_33_" class="st1" x1="861.3" y1="0" x2="861.3" y2="1200"/>
<line id="XMLID_24_" class="st1" x1="0" y1="257.1" x2="1200" y2="257.1"/>
<line id="XMLID_27_" class="st1" x1="0" y1="856.9" x2="1200" y2="856.9"/>
<line id="XMLID_29_" class="st1" x1="0" y1="812.3" x2="1200" y2="812.3"/>
<line id="XMLID_28_" class="st1" x1="0" y1="941.3" x2="1200" y2="941.3"/>
<g class="st2">
	<rect x="475.1" class="st3" width="257.1" height="257.1"/>
</g>
<g class="st2">
	<rect x="81.5" y="471.5" class="st3" width="257.1" height="257.1"/>
</g>
<g class="st2">
	<rect x="861.4" y="471.5" class="st3" width="257.1" height="257.1"/>
</g>
<g class="st2">
	<rect x="475.1" y="942.9" class="st3" width="257.1" height="257.1"/>
</g>
<g>
	<g>
		<path class="st4" d="M372.3,856.9H414v84.4h-16.6v-32.4H384l-24.7,32.4h-20.7l25.3-33.2c-14.2-2.7-20.8-13.5-20.8-25.3
			C343,868.9,352.2,856.9,372.3,856.9z M397.3,871.7h-23.9c-8.6,0-13.7,4.3-13.7,11.1c0,6.7,5.1,11.2,13.7,11.2h23.9V871.7z"/>
		<path class="st4" d="M482.2,856.9H499l-32.9,64.6c-7.8,14.9-11.2,19.8-24,19.8h-10.8v-14.9h9.4c5.1,0,7.5-1.7,9.5-6.1l1-2.3
			l-31.5-61.1h17l22.7,44L482.2,856.9z"/>
		<path class="st4" d="M567.2,916.5c0,13.7-12.3,26.4-35.1,26.4c-22,0-32.7-10.8-37.1-25h16.9c3.7,7.1,10.9,10.2,20.2,10.2
			c10.7,0,18.4-4.3,18.4-11.4c0-6.7-5.1-10-13.2-10h-18.7v-14.9h18.7c8.1,0,13.2-3.4,13.2-9.9s-6.4-11.7-17.5-11.7
			c-9.3,0-17.8,3.7-20.5,10.2h-16.8c3.7-12.8,15.8-25,37-25c20.7,0,34.4,10.9,34.4,26.4c0,7.6-3.3,13.7-9.8,17.4
			C563.9,902.8,567.2,908.9,567.2,916.5z"/>
		<path class="st4" d="M634.9,941.3v-34.8H594v34.8h-16.6v-84.4H594v34.7h40.9v-34.7h16.6v84.4H634.9z"/>
		<path class="st4" d="M746,941.3h-17.7l-8.3-18.7h-38.5l-8.3,18.7h-17l36.7-84.4h16.3L746,941.3z M688.1,907.7h25.3L700.9,879
			L688.1,907.7z"/>
		<path class="st4" d="M782.7,906.4h-15.4v34.8h-16.6v-84.4h16.6v34.7h15.4c3.1-21,19.8-36.3,42.7-36.3c25.9,0,43.3,19.1,43.3,43.8
			c0,24.4-17.4,43.8-43.3,43.8C802.5,942.9,785.7,927.4,782.7,906.4z M852.1,899.1c0-16.4-10.9-29-26.7-29
			c-15.6,0-26.6,12.6-26.6,29c0,16.3,10.9,29,26.6,29C841.2,928,852.1,915.3,852.1,899.1z"/>
	</g>
	<g>
		<polygon class="st4" points="576.4,459.1 465.5,459.1 658.4,635.7 456.1,812.3 567.1,812.3 762.3,635.7 		"/>
		<g>
			<path class="st4" d="M677.6,257.1H531.1c-101.5,0-183.8,82.3-183.8,183.8v54.4c0,101.5,82.3,183.8,183.8,183.8h152.6v-85.5h-241
				c-5.5,0-10-4.5-10-10V352.5c0-5.5,4.5-10,10-10h323.3c5.5,0,10,4.5,10,10v459.7h85.5V440.9C861.4,339.4,779.1,257.1,677.6,257.1z
				"/>
		</g>
	</g>
</g>
</svg>
